<?xml version="1.0" encoding="UTF-8"?>
<svg width="24px" height="24px" viewBox="0 0 24 24" version="1.1" xmlns="http://www.w3.org/2000/svg" xmlns:xlink="http://www.w3.org/1999/xlink">
    <!-- Generator: Sketch 58 (84663) - https://sketch.com -->
    <title>Group 7</title>
    <desc>Created with Sketch.</desc>
    <g id="Page-1" stroke="none" stroke-width="1" fill="none" fill-rule="evenodd">
        <g id="Desktop-HD-Copy" transform="translate(-266.000000, -839.000000)" fill="#A22430">
            <g id="Group-12" transform="translate(250.000000, 823.000000)">
                <g id="Group-8">
                    <g id="Group-9">
                        <g id="Group-7" transform="translate(16.000000, 16.000000)">
                            <path d="M0.712633841,4.90342614 L11.5126338,0.103426142 C11.8229123,-0.0344753806 12.1770877,-0.0344753806 12.4873662,0.103426142 L23.2873662,4.90342614 C24.2375446,5.32572768 24.2375446,6.67427232 23.2873662,7.09657386 L12.4873662,11.8965739 C12.1770877,12.0344754 11.8229123,12.0344754 11.5126338,11.8965739 L0.712633841,7.09657386 C-0.237544614,6.67427232 -0.237544614,5.32572768 0.712633841,4.90342614 Z" id="primary"></path>
                            <path d="M21.7046573,16.2 L23.2873662,16.9034261 C24.2375446,17.3257277 24.2375446,18.6742723 23.2873662,19.0965739 L12.4873662,23.8965739 C12.1770877,24.0344754 11.8229123,24.0344754 11.5126338,23.8965739 L0.712633841,19.0965739 C-0.237544614,18.6742723 -0.237544614,17.3257277 0.712633841,16.9034261 L2.29534266,16.2 L11.5126338,20.2965739 C11.8229123,20.4344754 12.1770877,20.4344754 12.4873662,20.2965739 L21.7046573,16.2 Z M21.7046573,10.2 L23.2873662,10.9034261 C24.2375446,11.3257277 24.2375446,12.6742723 23.2873662,13.0965739 L12.4873662,17.8965739 C12.1770877,18.0344754 11.8229123,18.0344754 11.5126338,17.8965739 L0.712633841,13.0965739 C-0.237544614,12.6742723 -0.237544614,11.3257277 0.712633841,10.9034261 L2.29534266,10.2 L11.5126338,14.2965739 C11.8229123,14.4344754 12.1770877,14.4344754 12.4873662,14.2965739 L21.7046573,10.2 Z" id="secondary" opacity="0.400000006"></path>
                        </g>
                    </g>
                </g>
            </g>
        </g>
    </g>
</svg>