<?xml version="1.0" encoding="UTF-8"?>
<svg width="22px" height="24px" viewBox="0 0 22 24" version="1.1" xmlns="http://www.w3.org/2000/svg" xmlns:xlink="http://www.w3.org/1999/xlink">
    <!-- Generator: Sketch 58 (84663) - https://sketch.com -->
    <title>Group 10</title>
    <desc>Created with Sketch.</desc>
    <g id="Page-1" stroke="none" stroke-width="1" fill="none" fill-rule="evenodd">
        <g id="Desktop-HD-Copy" transform="translate(-747.000000, -839.000000)" fill="#A22430">
            <g id="Group-12" transform="translate(250.000000, 823.000000)">
                <g id="Group-8-Copy-3" transform="translate(480.000000, 0.000000)">
                    <g id="Group-9">
                        <g id="Group-10" transform="translate(17.000000, 16.000000)">
                            <path d="M10.8,9.6 L10.8,13.2 C9.4745166,13.2 8.4,14.2745166 8.4,15.6 C8.4,16.4883388 8.88263836,17.2639514 9.6,17.6789227 L9.6,19.2 C9.6,19.8627417 10.1372583,20.4 10.8,20.4 L10.8,24 L2.4,24 C1.0745166,24 0,22.9254834 0,21.6 L0,12 C0,10.6745166 1.0745166,9.6 2.4,9.6 L10.8,9.6 Z" id="Path"></path>
                            <path d="M10.8,20.4 C11.4627417,20.4 12,19.8627417 12,19.2 L12,17.6789227 C12.7173616,17.2639514 13.2,16.4883388 13.2,15.6 C13.2,14.2745166 12.1254834,13.2 10.8,13.2 L10.8,9.6 L14.4,9.6 L14.4,6 C14.4,4.0117749 12.7882251,2.4 10.8,2.4 C8.8117749,2.4 7.2,4.0117749 7.2,6 L7.2,9.6 L4.8,9.6 L4.8,6 C4.8,2.6862915 7.4862915,0 10.8,0 C14.1137085,0 16.8,2.6862915 16.8,6 L16.8,9.6 L19.2,9.6 C20.5254834,9.6 21.6,10.6745166 21.6,12 L21.6,21.6 C21.6,22.9254834 20.5254834,24 19.2,24 L10.8,24 L10.8,20.4 Z" id="secondary" fill-rule="nonzero" opacity="0.5"></path>
                        </g>
                    </g>
                </g>
            </g>
        </g>
    </g>
</svg>