<?xml version="1.0" encoding="UTF-8"?>
<svg width="23px" height="24px" viewBox="0 0 23 24" version="1.1" xmlns="http://www.w3.org/2000/svg" xmlns:xlink="http://www.w3.org/1999/xlink">
    <!-- Generator: Sketch 58 (84663) - https://sketch.com -->
    <title>Group</title>
    <desc>Created with Sketch.</desc>
    <g id="Page-1" stroke="none" stroke-width="1" fill="none" fill-rule="evenodd">
        <g id="Desktop-HD-Copy" transform="translate(-986.000000, -839.000000)" fill="#A22430">
            <g id="Group-12" transform="translate(250.000000, 823.000000)">
                <g id="Group-8-Copy" transform="translate(720.000000, 0.000000)">
                    <g id="Group-9">
                        <g id="Group" transform="translate(16.000000, 16.000000)">
                            <path d="M21.8586683,21.6 C22.410953,21.6 22.8586683,22.0477153 22.8586683,22.6 L22.8586683,23 C22.8586683,23.5522847 22.410953,24 21.8586683,24 L1.00152544,24 C0.449240693,24 0.00152544235,23.5522847 0.00152544235,23 L0.00152544235,22.6 C0.00152544235,22.0477153 0.449240693,21.6 1.00152544,21.6 L21.8586683,21.6 Z M8.00152544,10.8 L6.8586683,12 L6.8586683,16.8 L8.00152544,18 L2.28723973,18 L3.43009687,16.8 L3.43009687,12 L2.28723973,10.8 L8.00152544,10.8 Z M14.2872397,10.8 L13.1443826,12 L13.1443826,16.8 L14.2872397,18 L8.57295401,18 L9.71581116,16.8 L9.71581116,12 L8.57295401,10.8 L14.2872397,10.8 Z M20.572954,10.8 L19.4300969,12 L19.4300969,16.8 L20.572954,18 L14.8586683,18 L16.0015254,16.8 L16.0015254,12 L14.8586683,10.8 L20.572954,10.8 Z M21.7158112,7.2 L21.7158112,8.6 C21.7158112,9.15228475 21.2680959,9.6 20.7158112,9.6 L2.14438259,9.6 C1.59209784,9.6 1.14438259,9.15228475 1.14438259,8.6 L1.14438259,7.2 L21.7158112,7.2 Z" id="primary" opacity="0.400000006"></path>
                            <path d="M20.7158112,19.2 C21.2680959,19.2 21.7158112,19.6477153 21.7158112,20.2 L21.7158112,21.6 L1.14438259,21.6 L1.14438259,20.2 C1.14438259,19.6477153 1.59209784,19.2 2.14438259,19.2 L20.7158112,19.2 Z M11.8942551,0.103426142 L22.1799694,4.90342614 C23.3079506,5.42981738 22.9501808,7.2 21.7158112,7.2 L1.14438259,7.2 C-0.0899870457,7.2 -0.447756886,5.42981738 0.680224338,4.90342614 L10.9659386,0.103426142 C11.2614419,-0.0344753806 11.5987519,-0.0344753806 11.8942551,0.103426142 Z" id="secondary"></path>
                        </g>
                    </g>
                </g>
            </g>
        </g>
    </g>
</svg>