<?xml version="1.0" encoding="UTF-8"?>
<svg width="60px" height="60px" viewBox="0 0 60 60" version="1.1" xmlns="http://www.w3.org/2000/svg" xmlns:xlink="http://www.w3.org/1999/xlink">
    <!-- Generator: Sketch 58 (84663) - https://sketch.com -->
    <title>Heckert_GNU_white</title>
    <desc>Created with Sketch.</desc>
    <g id="Page-1" stroke="none" stroke-width="1" fill="none" fill-rule="evenodd">
        <g id="Desktop-HD-Copy" transform="translate(-100.000000, -21.000000)" fill-rule="nonzero">
            <g id="Heckert_GNU_white" transform="translate(100.000000, 21.000000)">
                <path d="M10.7060218,35.7710212 C10.7060218,35.7706781 7.53971118,36.4909986 7.53971118,36.4909986 C7.53971118,36.4909986 9.40691071,33.5252087 9.40691071,33.5252087 C9.40691071,33.5252087 11.5447351,28.5654154 11.5447351,28.5654154 C11.5447351,28.5654154 5.1474771,25.7136372 5.1474771,25.7136372 C5.1474771,25.7136372 1.21860836,19.3809011 1.21860836,19.3809011 C1.21860836,19.3809011 0.731707317,11.3669217 0.731707317,11.3669217 C0.731707317,11.3669217 3.70242994,5.05991536 3.70242994,5.05991536 C3.70242994,5.05991536 9.8943709,1.16442154 9.8943709,1.16442154 C9.8943709,1.16442154 17.6002453,0.75 17.6002453,0.75 C17.6002453,0.75 22.2983819,3.16974605 22.2983819,3.16974605 C22.2983819,3.16974605 24.9605699,3.3487112 24.9605699,3.3487112 C24.9605699,3.3487112 22.9399417,5.26758354 22.9399417,5.26758354 C22.9399417,5.26758354 16.7894891,4.63222867 16.7894891,4.63222867 C16.7894891,4.63222867 11.326446,6.13725125 11.326446,6.13725125 C11.326446,6.13725125 8.25586054,9.73656633 8.25586054,9.73656633 C8.25586054,9.73656633 7.26103469,14.7813252 7.26103469,14.7813252 C7.26103469,14.7813252 9.28926719,18.5849921 9.28926719,18.5849921 C9.28926719,18.5849921 12.0693223,18.9239396 12.0693223,18.9239396 C12.0693223,18.9239396 21.9517138,8.87398861 21.9517138,8.87398861 C21.9517138,8.87398861 27.1414482,8.13925948 27.1414482,8.13925948 C27.1414482,8.13925948 32.2811953,11.117171 32.2811953,11.117171 C32.2811953,11.117171 34.5940312,9.30224707 34.5940312,9.30224707 C34.5940312,9.30224707 38.0277236,8.10643968 38.0277236,8.10643968 C38.0277236,8.10643968 42.2341505,9.56446246 42.2341505,9.56446246 C42.2341505,9.56446246 49.2644693,18.242271 49.2644693,18.242271 C49.2644693,18.242271 51.8141579,18.7266777 51.8141579,18.7266777 C51.8141579,18.7266777 53.9277155,15.813834 53.9277155,15.813834 C53.9277155,15.813834 53.729891,10.4986262 53.729891,10.4986262 C53.729891,10.4986262 50.8881065,6.3510946 50.8881065,6.3510946 C50.8881065,6.3510946 46.9048892,4.97529286 46.9048892,4.97529286 C46.9048892,4.97529286 43.6824407,5.54718086 43.6824407,5.54718086 C43.6824407,5.54718086 39.658406,5.22126988 39.658406,5.22126988 C39.658406,5.22126988 39.0880809,3.92322936 39.0880809,3.92322936 C39.0880809,3.92322936 42.4205686,2.58527904 42.4205686,2.58527904 C42.4205686,2.58527904 45.0932684,1.20158682 45.0932684,1.20158682 C45.0932684,1.20158682 49.1861894,0.917486794 49.1861894,0.917486794 C49.1861894,0.917486794 55.2137426,3.3171493 55.2137426,3.3171493 C55.2137426,3.3171493 59.4520406,9.32077254 59.4520406,9.32077254 C59.4520406,9.32077254 60,17.8401998 60,17.8401998 C60,17.8401998 56.3432099,24.7700963 56.3432099,24.7700963 C56.3432099,24.7700963 51.1991014,27.4116906 51.1991014,27.4116906 C51.1991014,27.4116906 51.3332956,29.4357693 51.3332956,29.4357693 C51.3332956,29.4357693 52.7646997,29.6187368 52.7646997,29.6187368 C52.7646997,29.6187368 52.1720089,30.9795581 52.1720089,30.9795581 C52.1720089,30.9795581 48.8283384,31.1053483 48.8283384,31.1053483 C48.8283384,31.1053483 42.38702,28.1893027 42.38702,28.1893027 C42.38702,28.1893027 43.3151961,32.1459763 43.3151961,32.1459763 C43.3151961,32.1459763 46.4799411,32.1459763 46.4799411,32.1459763 C46.4799411,32.1459763 47.4193,35.4965699 47.4193,35.4965699 C47.4193,35.4965699 44.254555,39.2817114 44.254555,39.2817114 C44.254555,39.2817114 45.9655302,41.3629674 45.9655302,41.3629674 C45.9655302,41.3629674 43.7848756,43.4442235 43.7848756,43.4442235 C43.7848756,43.4442235 43.4493902,46.6118495 43.4493902,46.6118495 C43.4493902,46.6118495 39.0433495,47.9383643 39.0433495,47.9383643 C39.0433495,47.9383643 40.1169026,51.4833609 40.1169026,51.4833609 C40.1169026,51.4833609 33.2841847,57.75 33.2841847,57.75 C33.2841847,57.75 28.5929814,51.7806832 28.5929814,51.7806832 C28.5929814,51.7806832 25.2133022,51.4839327 25.2133022,51.4839327 C25.2133022,51.4839327 26.1764806,47.9393935 26.1764806,47.9393935 C26.1764806,47.9393935 22.3181756,46.1269854 22.3181756,46.1269854 C22.3181756,46.1269854 22.38572,43.4517709 22.38572,43.4517709 C22.38572,43.4517709 19.7149212,40.7379045 19.7149212,40.7379045 L17.6051658,33.2666527 C17.6051658,33.2666527 10.7060218,35.7706781 10.7060218,35.7706781 L10.7060218,35.7710212 Z" id="Path" fill="#FFFFFF"></path>
                <path d="M12.6812968,34.9374232 C12.2735021,34.9657726 11.7426059,35.1526259 11.3864308,35.8055794 C11.0956779,36.3388228 10.4145239,36.4238709 10.0965023,36.3164417 C9.56672833,36.1373931 8.88961407,36.0132069 8.23370872,36.4912437 C7.57780338,36.9691657 6.86949293,36.60774 6.99371658,35.736485 C7.11794023,34.8653447 7.42563782,34.0893527 8.24234939,33.6087908 C10.0260304,32.5592906 8.7863749,31.8288641 9.7653515,30.7755763 C10.7462358,29.7202226 10.5295458,29.3972465 10.497003,27.9639395 C7.18179141,27.4545692 5.30283861,26.4772623 3.20472702,23.7961244 C1.10661543,21.1148717 0.293270362,18.9078682 0.0757948169,15.5463456 C-0.141680728,12.184823 0.0468429642,10.0062836 1.46683034,7.21599489 C2.88681772,4.42570617 4.38187793,3.08249738 6.9727321,1.68924681 C9.56358626,0.296225781 12.1021475,-0.0374243902 14.4485942,0.00320586799 C16.7950409,0.0437213514 18.3585531,0.219556254 19.6843909,0.99325278 C21.0101164,1.76694931 22.2229522,2.74058343 22.9961237,2.74758469 C23.7694075,2.75458595 24.2958151,2.54741754 24.6716281,2.25290556 C24.7719496,4.85863649 22.4790302,5.08497228 20.4277129,5.14006416 C18.3762833,5.19504126 17.1157556,4.32711467 15.2263667,4.64997602 C13.3369777,4.97283736 10.2435059,5.85224142 8.73655078,8.53510099 C7.22959563,11.2179605 7.17820048,12.1663442 7.30343407,14.4161587 C7.42866767,16.6660879 9.32198418,18.3446685 10.390734,18.3629177 C11.4593715,18.3811669 11.6979438,18.0646181 12.6333804,17.4405879 C13.5689292,16.8164428 18.3447505,10.7696504 19.9743583,9.41140613 C21.6040783,8.05316185 23.2122527,7.63377495 24.9486906,7.61196775 C26.6851284,7.59016055 27.1288324,7.65041729 28.5292941,8.23749008 C29.9297558,8.82444811 30.790344,9.90551139 31.9194663,10.5663843 C32.4965957,10.2189612 32.8551273,9.70017938 33.3846769,9.3043213 C35.2785545,7.88857487 36.2625808,7.50706363 38.5135313,7.73110393 C39.8072751,7.85988119 41.4385661,8.61578763 42.4119319,9.48141872 C44.1451155,11.0227287 45.5769978,13.1685573 46.734062,14.7987029 C47.6350481,16.0682263 48.6952695,17.5871552 50.2088454,18.0619783 C51.8614575,18.5801863 53.1050406,16.3909729 53.2876168,15.1766561 C53.3910804,14.4885816 53.5260768,13.8855551 53.527199,13.1282713 C53.5283212,12.3708728 53.4526873,11.4517567 53.2392515,10.6624508 C53.0258158,9.87314491 52.6602145,9.08774136 52.2643147,8.43650948 C51.6199677,7.37656475 50.5656938,6.26738166 49.4687777,5.69672165 C48.8531581,5.37650012 47.4047799,4.79424787 46.4917866,4.77381796 C45.3731005,4.74902662 44.5208163,5.13340722 43.486517,5.20548576 C42.2346299,5.29282934 39.9983798,5.58068439 39.0169344,4.5914409 C38.3923375,3.96190145 38.3137859,3.54194067 38.2070681,2.72107173 C38.4830084,2.95360535 38.8689209,3.1064853 39.2124155,3.13621196 C39.9963599,3.20392906 40.7303679,2.54925394 41.3631567,2.16992342 C41.8844022,1.8573918 42.6225622,1.29889791 43.307195,1.01666683 C45.0663006,0.291290467 47.2271412,0.31217947 49.0840996,0.506493106 C50.572539,0.662127654 52.5023259,1.3394134 53.8077402,2.09497552 C55.1193265,2.8538661 56.3832207,4.13348968 57.3090067,5.33977221 C58.4737016,6.85755338 59.1104179,8.15978758 59.5322397,10.0527674 C60.0714399,12.470153 60.2209122,16.1016258 59.5690467,18.4851528 C59.0553196,20.3634414 57.3495169,23.2487636 55.8974356,24.6631328 C54.4653288,26.0582197 52.8117067,26.7316031 50.9311829,27.0999153 C51.0047969,27.4880835 51.0169163,27.850083 51.114208,28.1683533 C51.2524587,28.6201067 51.5168407,29.1237383 52.0599685,28.9644309 C52.2765463,28.9009605 52.3924659,28.8459834 52.6780569,29.101472 C52.9634234,29.3569606 52.8148488,30.3439085 52.0117154,30.7868243 C51.6044818,31.0114384 51.1746927,31.0602177 50.5224905,31.0735316 C49.8702883,31.0868454 48.8523725,31.0897148 48.1442865,30.9628887 C47.4363127,30.8361774 47.0133688,30.2615003 46.2292,30.1715169 C45.0173742,30.032869 44.0894561,29.1373965 43.1177736,28.4969534 C42.7123354,28.2296431 42.5755435,28.2268885 42.3419088,28.0917986 C42.4681524,28.4870828 42.6364771,28.897632 42.720415,29.2776512 C42.8045774,29.6576704 42.7686681,30.0096845 42.8133303,30.3138376 C42.857768,30.6177611 42.9402471,30.8540823 42.9882758,31.1006184 C43.1824103,31.2781749 43.244466,31.5482399 43.5705671,31.6331732 C43.8968926,31.7179917 44.4078143,31.585886 44.7416583,31.5399761 C45.0755024,31.4940662 45.299262,31.3080164 45.5611753,31.3589764 C45.823313,31.4098216 46.0716481,31.6017249 46.2912557,31.7815769 C46.5108634,31.961429 46.6996115,31.9877124 46.8773624,32.4364816 C47.0551133,32.8852509 47.2181639,33.8042522 47.2425149,34.4185266 C47.2668658,35.032801 47.199536,35.5872778 47.0215606,36.0747261 C46.8435853,36.5621744 46.6871555,36.7782953 46.2051857,37.2610378 C45.7232159,37.7438952 44.9383738,38.4523996 44.155215,38.945931 C44.2994132,39.1643474 44.3633766,39.364285 44.5882584,39.6012948 C44.8131402,39.8384194 45.2819807,40.1041229 45.4905911,40.3542171 C45.6989771,40.6043113 45.8046851,40.7837042 45.8077149,41.0642136 C45.8109692,41.3446083 45.7976154,41.7091329 45.5749779,42.0148928 C45.0205163,42.7761937 44.3647232,42.9125461 43.5673128,43.2706433 C43.7014115,44.1270924 43.8108226,44.7389565 43.6170247,45.5941431 C43.5379121,45.9425992 43.3621811,46.7327085 42.9419304,46.9354007 C42.5215674,47.1380929 41.7110278,47.0399605 41.197974,47.123287 C40.6849202,47.2067282 40.3977582,47.2859228 39.9978187,47.3671833 C39.7547578,47.726543 39.3928596,48.1230897 39.2688604,48.4451477 C39.1446368,48.7673204 39.1821171,48.8827838 39.2863662,49.2117282 C39.3906153,49.5406726 39.745556,50.0196276 39.846102,50.4048116 C39.946648,50.7899956 39.9661737,51.2046768 39.8723607,51.5908938 C39.7783233,51.9771108 39.617517,52.2573907 39.2956802,52.6003376 C38.9739555,52.9433993 38.3409423,53.2127756 38.025614,53.49076 C37.7100613,53.7688592 37.3959673,53.8022587 37.4820374,54.2623906 C37.6004258,54.8943403 38.5032074,55.9192788 39.1563073,56.1632899 C39.5477184,56.3096277 40.073116,56.2634882 40.548465,56.058271 C40.5162589,56.5980566 40.0595378,56.9618925 39.7611541,57.320334 C40.569225,57.0840128 41.3528327,56.6315708 41.8948384,56.0318728 C41.7267381,56.5527206 41.1483743,57.3888546 40.2832974,58.1230686 C39.4182206,58.8572826 39.4234947,58.7070424 38.9934812,58.9991442 C39.7780988,59.1604027 40.5077304,59.1167883 41.1154949,59.0051124 C40.7823241,59.1929987 40.2361665,59.4572102 39.5127068,59.5349127 C38.7892472,59.6125004 38.3431867,59.5576381 37.6912089,59.3956909 C37.0391189,59.233629 36.4439227,58.6273888 35.6538064,58.2094939 C35.7307869,58.5092856 35.7855486,58.869793 36.1178216,59.178078 C36.4500946,59.4863629 36.9528244,59.6431452 37.4871993,59.909767 C36.806943,59.8308019 36.092124,59.8069288 35.4236504,59.6562296 C34.9287757,59.5445537 34.5962783,59.4261062 34.2341557,59.2426962 C33.8722575,59.0592861 33.5928385,58.7917462 33.272236,58.5663286 C33.4258604,58.8664646 33.4714202,59.2195117 33.7328847,59.466966 C33.9943491,59.7144203 34.4193129,59.8065845 34.763032,59.9765659 C34.4045003,59.9685316 34.0596591,60.0480705 33.6879981,59.9524632 C33.3161126,59.8568558 32.9673438,59.7066157 32.580758,59.4153174 C32.1941722,59.1240191 31.7954671,58.765348 31.4655506,58.3986427 C31.1358586,58.0319374 30.7287372,57.5565404 30.6055235,57.2184141 C30.4820854,56.8801729 30.6795864,56.6436222 30.7166178,56.3565705 C30.4889306,56.5095653 30.2088382,56.5938099 30.0338927,56.815899 C29.8589472,57.0379882 29.703864,57.2407951 29.7812934,57.6279303 C29.858835,58.0150655 30.2081649,58.4882818 30.4551534,58.9189166 C29.7181155,58.3024615 29.3065055,58.0651073 29.1311111,57.3214818 C28.9669384,56.6252582 29.3916778,55.9933085 29.7145246,55.4668367 C29.874882,55.2053799 30.1148008,54.9620574 30.264722,54.7096678 C29.9317757,54.3764767 29.5512496,54.0901137 29.2658831,53.7100946 C28.9806288,53.3301902 28.8607816,52.8159993 28.5695798,52.4525077 C28.2782658,52.0889014 27.8864059,51.858778 27.5451555,51.5623148 C27.8451102,52.2213514 28.3380772,53.0297099 28.4451317,53.5397689 C28.5520741,54.0498278 28.3251723,54.3620151 28.1482069,54.6373597 C27.9711293,54.9127043 27.6854262,54.9741088 27.4144233,55.1432868 C27.1434205,55.3125795 26.7219354,55.1790965 26.5604559,55.4303384 C26.3990886,55.6814655 26.355773,56.059304 26.5100707,56.3081356 L27.1429717,57.3298603 C26.9097858,57.2094616 26.5080508,56.8592839 26.3269334,56.6109114 C26.145816,56.3625388 25.867968,56.1331041 25.8299266,55.7972732 C25.7918852,55.4615571 25.7733695,55.170144 25.9860197,54.8710411 C26.1987822,54.5720529 26.7811857,54.4719693 27.0418646,54.2420755 C27.3025435,54.0121817 27.4487616,53.8625154 27.4338368,53.5653636 C27.4190242,53.2682118 27.1352287,53.055649 26.8912701,52.8683366 C26.1464893,52.296988 25.1910782,51.7705162 24.5586261,51.0818678 C24.2013288,50.6927814 24.029862,50.3786429 23.9580434,50.1101848 C23.8863371,49.8418415 23.9621955,49.6324924 24.1397219,49.3024002 C24.3172484,48.9721933 24.9260228,48.5313435 25.0000857,48.1726724 C25.0740364,47.8141161 24.7665632,47.7371023 24.4890518,47.6106205 C24.2115405,47.4841388 23.6844597,47.6754683 23.427035,47.4554451 C23.1697226,47.2354219 23.502669,46.7731092 23.2125893,46.5195718 C22.922622,46.2660344 22.2588615,46.4075517 21.9162645,46.1348469 C21.5736676,45.8620274 21.4320504,45.5234419 21.3139987,45.1276986 C21.1959469,44.7319553 21.1825932,44.2984511 21.2626035,44.0118585 C21.3426139,43.725266 21.5829816,43.6751094 21.7279653,43.5265909 C21.872949,43.3780724 21.9987436,43.2549191 21.8055069,43.0334039 C21.6122701,42.8120034 20.9790325,43.0457995 20.6150022,42.7615025 C20.2509719,42.4772055 20.4738339,41.7962469 20.2164092,41.5091953 C19.9590968,41.2221437 19.4972138,41.3345082 19.2534796,41.2428031 C19.0098576,41.1510981 18.9142492,41.4746481 18.7647768,40.9629823 C18.6153045,40.4512018 18.6112647,38.9257307 18.4101727,38.356448 C18.2090808,37.7871653 17.814191,38.3179984 17.6308292,37.752159 C17.4474675,37.1864343 17.6212908,36.281665 17.5386995,35.427167 L17.1644575,33.1021751 C15.858931,33.9991397 14.9971084,34.2807969 13.5945146,34.5342196 C13.4774728,38.0442607 13.1550748,40.111239 14.3198819,44.0054311 C15.484689,47.8995085 17.8420207,50.1945443 21.0221236,53.4914487 C16.8257882,50.2759196 14.8223873,47.6618101 13.5684803,44.3129127 C12.3143489,40.9635562 12.5551655,38.1625934 12.6812968,34.9374232 Z M34.9796098,33.5266121 C35.3024566,33.541418 35.6947654,33.6252036 35.9214427,33.7757881 C36.1482322,33.9263725 36.3889366,34.049411 36.5947416,34.2636955 C37.1082443,34.7985458 37.4933712,35.4435798 37.6636036,36.1847951 C37.772117,36.6573227 37.7882761,37.2633333 37.8277763,37.8181544 C37.6723565,37.3053409 37.567883,36.7706054 37.3464799,36.3111621 C36.9973744,35.5867039 36.4043103,34.8795767 35.6678335,34.5539608 C35.4247726,34.4463021 35.2626198,34.4662729 35.1288577,34.4853255 C35.1886691,34.5880489 35.2888784,34.67413 35.2932549,34.8245996 C35.2976313,34.9750693 35.2647519,35.2694665 35.0152946,35.3931937 C34.6131108,35.592787 34.1660403,35.4524175 33.8554251,35.1715637 C33.5422289,34.8885292 33.435511,34.409689 33.5994593,33.9982215 C33.7948282,33.5079038 34.5392723,33.5066413 34.9796098,33.5266121 Z M30.9317368,32.8287817 C30.972247,31.9857612 31.2697328,31.2748465 32.0083417,30.8614279 C32.3903266,30.6477173 32.9787899,30.3713397 33.5195611,30.3063772 C34.0390112,30.2440545 35.3025688,30.2896201 36.0626111,30.6443888 C36.646249,30.9168641 37.043832,31.3410715 37.5563247,31.6510781 C38.0687051,31.9611994 38.4331843,32.1690565 38.9211015,32.5168239 C39.6700344,33.0506413 40.1090252,33.6384027 40.6282509,33.9907612 C40.8779326,34.1600539 41.2291702,34.1349182 41.5606577,34.238445 C41.3028964,34.3167214 40.9660225,34.403032 40.6879501,34.3121304 C40.3412011,34.198733 39.8564259,33.8744943 39.587443,33.6420755 C39.112094,33.2314115 38.8656666,33.0310148 38.3468898,32.7212378 C38.0371723,32.53668 37.5271484,32.3191818 37.1867958,32.0921574 C36.8462188,31.865133 36.2550623,31.3670106 35.9278391,31.1984065 C35.5118526,30.9842368 34.7629198,30.8651006 34.2998023,30.8789884 C33.6617394,30.898041 32.7381977,31.0056997 32.2444452,31.4638805 C31.753947,31.9193066 31.5676676,32.3199853 31.6783131,32.9114195 C31.8630214,32.6938066 31.9860107,32.4204132 32.1710556,32.2585808 C32.5543871,31.9236681 32.9942758,31.9074848 33.4714202,31.9709553 C34.0074784,32.0423452 34.277359,32.3590087 34.4544366,32.8795121 C34.3352627,32.7899878 34.1162162,32.5933787 33.9432906,32.5324333 C33.5374035,32.3891944 33.2304915,32.4332679 32.850302,32.6418136 C32.4014361,32.8881202 32.5235276,33.2526448 32.4588909,33.6580292 C32.4292658,33.8449972 32.3602526,33.9955817 32.3109896,34.1644153 C32.142216,34.118735 31.9861229,34.046886 31.8584205,33.9174201 C31.8636947,34.1067984 31.8367627,34.2724184 31.8746919,34.4854403 C31.9123966,34.6983474 32.0138403,34.951311 32.0833024,35.1841889 C31.7707794,34.8644265 31.4509625,34.5667008 31.249085,34.1538561 C31.0469831,33.7407818 30.910079,33.2823715 30.9317368,32.8287817 Z M31.4726202,26.692924 C31.7030007,26.3432054 31.7704428,25.8067483 31.9125089,25.3706043 C31.8557273,25.9230151 31.964914,26.5305178 31.7012052,26.9306225 C31.4374965,27.3307273 30.9743791,27.2605999 30.5907109,27.3769815 C30.8892068,27.1442183 31.2421276,27.0426427 31.4726202,26.692924 Z M25.9570679,34.8841677 C26.2528705,34.6392384 27.0511786,34.8350441 27.6482825,34.8787733 C27.2191667,34.9911378 26.7900508,35.103617 26.360935,35.2159815 C26.3209859,35.3653034 26.3390528,35.5364326 26.2410878,35.6637178 C26.1430106,35.7911177 25.9567312,35.8382902 25.8146652,35.9254042 C25.8286922,35.5331041 25.6612652,35.1289823 25.9570679,34.8841677 Z M30.1641761,17.8722557 C30.5205756,18.0685205 30.9729202,18.3280262 31.2876875,18.3360604 C31.6024547,18.3440946 31.6848216,18.1255635 31.8699788,17.9994261 C32.1612928,18.9709943 32.4956979,20.0385141 32.9916948,20.9200989 C33.1995197,21.289444 33.3320474,21.117741 33.4900482,21.4889225 C33.6478246,21.8599893 33.7179599,22.6150923 33.8676567,23.0892267 C34.0175779,23.5633612 34.213059,23.9122764 34.3857602,24.3237439 C33.9472181,23.6882361 33.3806371,22.8779264 33.1362296,22.3490444 C32.8920465,21.8202772 33.0483641,21.7742525 32.8506387,21.270621 C32.6529132,20.7669894 32.2531981,19.9819302 31.9544778,19.3375848 C31.7405932,19.3666228 31.4757623,19.4064496 31.3131606,19.3551453 C31.1505589,19.303841 31.1829895,19.1269731 31.0360981,19.0126575 C30.8889823,18.8983419 30.6417694,18.9426449 30.4357399,18.7601531 C30.2297105,18.577776 30.182804,18.2034956 30.1641761,17.8722557 Z M28.245162,22.6662818 C28.580577,22.6362108 28.9971246,22.7281454 29.3112186,22.7098962 C29.6253125,22.691647 29.849521,22.6083206 30.1187284,22.5574754 C30.068792,22.0735851 30.1161474,21.1845399 29.6794008,20.861449 C29.3972886,20.6527885 28.2386534,20.8099152 27.9291604,20.8782061 C27.2327449,21.0317747 26.4217563,21.4569004 25.748233,21.7227187 C26.3937022,21.2615538 26.9513059,20.8341326 27.7254874,20.5960898 C28.1908492,20.4529657 29.2768803,20.2669159 29.7571669,20.3995955 C29.9764379,20.4600818 30.0207634,20.5529345 30.1537399,20.7430015 C30.6109099,21.3958402 30.6095633,21.9600728 30.7281761,22.7205703 C30.844769,22.9063906 30.9689927,23.0303473 31.063479,23.2220211 C31.1577408,23.4136949 31.2111558,23.715323 31.2375267,23.9618591 C31.1179039,23.7844173 31.1910691,23.5618691 30.8596938,23.4297634 C30.5280941,23.2976577 30.0204267,23.4210405 29.5736929,23.4687868 C29.8993452,23.7091251 30.0611613,23.9406258 30.0736174,24.4487335 C30.0882055,25.0453326 29.5943408,25.474705 29.078706,25.5155648 C28.3628771,25.5723783 27.9937971,25.4115788 27.7042785,24.785827 C27.5774739,24.5117449 27.6693792,24.181997 27.6588308,23.9148015 C26.7986915,23.9759764 26.8127186,23.9472827 26.1840818,24.4833955 C26.525781,24.9954056 26.7410122,25.2898028 27.3056856,25.5961366 C27.6223605,25.7680692 27.9808922,25.9351812 28.3733132,26.0034722 C28.7658465,26.0717632 29.4096324,26.1377586 29.8219158,26.0730257 C30.2343114,26.0082927 30.4679461,25.887894 30.7736238,25.5987764 C31.0794137,25.3095441 31.1074678,24.8954368 31.2268662,24.5680993 C31.1997098,24.8831559 31.1643616,25.2844084 31.050013,25.5129249 C30.7021419,26.2076564 30.1005493,26.4135623 29.3822516,26.4158818 C28.6927935,26.4181533 27.8399483,26.2555175 27.1985188,25.9835014 C26.6856895,25.766118 25.8355374,25.1504663 25.6337722,24.615616 C25.4958581,24.2501732 25.6050448,23.8017483 25.5905688,23.3947571 C26.3006747,22.911785 26.4764058,23.0305769 27.3165706,22.8891744 C27.6680326,22.8299506 27.9097469,22.6964676 28.245162,22.6662818 Z M24.1087502,19.3950869 C24.1287247,19.1057398 24.1600331,19.1119377 24.1857307,18.9703056 C23.5388027,18.793323 23.2793582,19.2225805 22.9000664,20.0198059 C22.7581126,20.3181054 22.8986076,20.4956619 22.7463299,20.6920415 C22.5942765,20.8884211 22.3491957,20.8608752 22.1022072,21.0494501 C21.8552188,21.2379102 21.6104746,21.5988767 21.3795331,21.7941086 C20.9056429,22.1947872 20.2651112,22.4393722 19.7154749,22.708978 C20.090839,22.425714 20.8192362,21.9961121 21.0548908,21.5845299 C21.1799,21.3663431 21.1613842,20.9548757 21.3559676,20.7587256 C21.5504388,20.5624608 21.6185542,20.4266823 21.8696947,20.3766405 C22.1208352,20.3265987 22.0198403,20.0288731 22.1008606,19.7922075 C22.1818809,19.555542 22.3432482,19.3875118 22.5149395,19.1510758 C22.6866307,18.9146399 22.9032085,18.5596416 23.2422145,18.4307496 C23.5812205,18.3017428 24.1098723,18.4411941 24.3665114,18.3669348 C24.6230383,18.2926756 24.4756981,18.1019199 24.6620897,17.9873747 C24.8487057,17.8728296 25.2115016,17.9233304 25.4607344,17.8008658 C25.9025307,17.5835972 26.1138343,17.220909 26.3795629,16.8326261 C26.4181654,17.6684157 26.4087392,18.2701797 26.1150687,19.0565015 C25.7843667,19.9415295 25.4491761,20.4628364 24.5105974,21.0070982 C24.1871895,21.1945253 23.8653526,21.2596026 23.5972675,21.3579646 C23.753585,21.1398925 23.9773447,21.0452034 24.0663324,20.7037485 C24.1550956,20.3620641 24.0887756,19.6845488 24.1087502,19.3950869 Z M39.2622397,23.4703937 C38.8159547,23.5001203 38.7101346,23.4400931 38.3530617,23.6976476 C38.5466351,24.005703 38.7400964,24.3137585 38.9334454,24.6218139 C38.9163885,24.0137373 38.9742922,23.8918465 39.2622397,23.4703937 Z M38.0929439,23.0285109 C38.7110323,22.7592494 39.2495592,22.5414069 39.9219604,22.4983664 C40.1915044,22.4810354 40.6099596,22.5237316 40.8821968,22.5363568 C41.1140361,22.1872121 41.4095021,21.9118675 41.517791,21.5133696 C41.5894973,21.2490433 41.5541491,20.0222161 41.4272323,19.7037162 C41.057479,18.7767954 40.6980496,18.7376572 40.1891478,18.2067093 C39.8198434,17.82164 39.805143,17.2352559 39.694722,16.5781705 C39.6542118,16.3367992 39.5384044,16.0313836 39.4840916,15.7823224 C38.8188723,15.6676625 38.1034922,15.6299016 37.3381758,15.6690398 C37.7092757,15.3049743 38.0680318,14.9723571 38.1745253,14.4257998 C38.2807943,13.8792425 38.1942754,13.2072364 37.8905054,12.7171482 C37.5867353,12.2270601 37.1015113,11.800098 36.656124,11.4007967 C36.2105124,11.0014954 35.5718884,10.6718623 35.14973,10.3452134 C35.6988052,10.1441281 36.2594388,9.84869789 36.7972924,9.74207216 C38.1984274,9.46408774 39.4056523,9.88921338 40.7570754,10.7248883 C41.5428152,11.2109593 42.1926609,11.6726981 43.0140856,12.5522169 C43.8352858,13.431621 44.8538748,15.0447799 45.6489286,16.0014274 C46.4439824,16.9580749 47.0858607,17.71467 47.7794707,18.2852152 C48.473193,18.8558752 49.1010443,19.0183962 49.7616627,19.384872 L50.7913611,20.5032371 L51.6246808,19.448572 L52.9655555,19.6036326 L53.242618,18.0642738 L54.4732962,17.7193757 L54.2725409,15.6442484 L55.1573679,15.001969 L54.492373,13.7108679 L55.1680284,12.3000568 L54.287129,10.6873569 L54.6268083,9.13456946 L53.6069849,8.24563909 L53.4738962,6.59552264 L52.0512156,6.040472 L51.4804826,4.60486954 L49.8809488,4.58650558 L49.0963312,3.52082212 L48.0195018,3.59795074 L46.8191221,3.46423817 L46.1403246,2.95165418 L45.1551761,3.62056137 L43.9631004,2.98482408 L41.5934249,3.90497318 L43.138197,2.53088998 L44.7386285,2.26943312 L45.9647058,1.94978547 L47.6205722,2.50598386 L49.0780399,2.12837497 L50.4833269,2.97805237 L51.9704197,2.89392248 L52.700949,4.23460623 L54.1816455,4.40940816 L54.982759,5.89998772 L55.9140436,6.42003207 L56.1612565,8.32953943 L56.9906486,9.13411036 L56.625945,10.8048863 L57.6030139,12.070163 L56.6868785,13.4258822 L57.6665284,14.2732641 L56.4141925,15.4085011 L57.6825754,16.7595146 L56.1508204,17.264753 L57.1485371,18.7137841 L55.8973234,18.9346107 L56.7178503,20.5279136 L55.307738,20.5087463 L56.0180683,21.702174 L54.4713885,21.5117627 L54.8413662,23.2286781 L53.6725194,22.1769971 L53.2721309,24.2578632 L52.4655189,22.7637256 L52.0286601,24.627323 L51.0329632,23.2531251 L51.0601196,25.2072798 L49.9596126,23.4501933 C50.1916763,24.4471267 50.1452186,25.5387493 50.7854137,26.4786396 C52.7689522,26.2040984 54.0653893,25.6928917 55.5850249,24.1972621 C56.969103,22.8351155 58.6233984,19.9950145 59.0713666,18.193625 C59.5825127,16.1380094 59.598223,12.3573294 59.0948198,10.2645268 C58.6102691,8.24954143 57.9805102,7.28704046 56.8553155,5.64277752 C55.7798327,4.47448544 54.7220801,3.24031265 53.3570788,2.40716281 C51.3533413,1.18423795 48.7840327,0.854490119 46.5004273,0.886282722 C45.2359719,0.903958032 44.3889619,1.15233057 43.6329595,1.43352869 C42.3109371,1.92522367 41.2536334,2.99779363 39.9096165,3.52782338 C39.471299,3.70055936 39.1199492,3.70595377 38.7747713,3.51737888 C39.1127673,4.20901146 39.4805007,4.51924759 40.3234709,4.77094859 C40.9332553,4.95298133 42.3882542,4.83786227 43.3898986,4.74328788 C44.4651569,4.64171223 45.0260149,4.314719 46.48943,4.33526368 C47.9186192,4.35534926 49.0511079,4.91062945 49.6703185,5.27274376 C50.9479031,6.01992732 51.8640385,6.8488305 52.6601022,8.16185353 C53.0972977,8.88286845 53.4035364,9.69639181 53.6192165,10.5265575 C53.8348966,11.3567232 53.9293829,12.2865134 53.9431855,13.0992333 C53.9569881,13.9119533 53.896279,14.6374444 53.7019201,15.368789 C53.2473311,17.0809986 52.2444524,18.8232792 50.1843822,18.5541324 C48.9237422,18.3893159 47.0232439,15.9691757 46.386752,15.0812783 C45.1024343,13.2893003 43.780973,11.3063371 42.1671878,9.81403592 C41.1832736,8.9044461 39.8361148,8.27846467 38.5131946,8.15462272 C36.0313027,7.92231865 35.2952748,8.40448733 33.4270947,9.97942632 C33.807172,10.103383 34.1781597,10.1717888 34.5676631,10.3512965 C35.4320666,10.7496796 36.2226318,11.2645591 36.9122021,11.9249729 C37.634764,12.6171794 37.9589574,13.0552746 37.984655,14.0464693 C38.0017119,14.7047024 37.4722745,15.2324366 36.9869382,15.707145 C36.6900134,15.9978694 36.2970313,16.264032 36.0565514,16.4896792 C35.7378566,16.7891265 35.3431912,17.1166936 35.7435796,17.5936974 C35.8941741,17.7729755 36.1556385,17.9081802 36.3761439,18.0756365 C36.7261471,18.34134 36.565902,19.3288619 36.1048045,19.5907779 C35.5147702,19.9255758 34.809714,19.8881592 34.3231434,19.4399639 C34.9373042,19.3459634 35.3273687,19.2626369 35.3114339,18.7487904 C35.3022322,18.4509499 34.93203,18.2034956 34.568673,18.0340881 C33.6923745,17.62549 33.0305217,17.6857467 32.1583752,17.0439264 C31.2774758,16.3953343 31.2580623,16.0402213 31.019939,15.0219398 C30.5951996,15.0673906 30.2041251,15.077376 29.6361975,15.2697384 C29.0682699,15.4619861 28.4406431,15.9197078 27.9250083,16.0329905 C26.6264392,16.3187796 26.367668,16.2340758 25.657001,16.04596 C24.4057872,15.7147201 22.7766283,16.2818221 21.1582422,16.811278 C20.8891471,16.8993102 19.8007594,16.8142621 19.068098,17.0772111 C17.9365069,17.4832841 16.3487559,18.4666741 15.4317228,19.2565538 C14.0422583,20.4535396 12.2162717,24.035774 11.1845534,28.1474643 C11.0761522,29.3973613 11.4236867,30.2394635 10.6538816,30.8499504 C9.88407654,31.4604372 9.90539767,33.0244726 9.64438213,33.4631417 C9.38336659,33.901696 9.0811676,33.7078414 8.51929967,34.3238375 C7.95743174,34.9398335 7.67139192,34.8368805 7.68503138,36.0016146 C8.16974533,35.6759987 8.87569922,35.2974716 9.49558308,35.2746314 C10.0445461,35.2543163 10.0503814,35.9935804 11.4593715,34.5688815 C12.2129052,33.8066625 13.6606101,33.7833632 14.6650598,33.447188 C15.6696218,33.1110128 17.4797859,32.4182324 19.2927554,30.3451711 C21.1057249,28.2721097 21.9732705,26.089668 22.3248447,22.9345104 C22.3808408,23.4939225 22.4780202,24.1248392 22.2438244,25.6679856 C22.0096286,27.211132 21.5048789,28.9443454 22.5682423,31.0203909 L23.2307684,32.3137874 C22.8363275,31.763213 22.0658491,30.8651006 21.8338976,30.2251167 L21.2988494,28.7487692 C20.1018362,30.6710166 19.8266814,31.0148817 18.1638575,32.3920638 C18.0976498,33.246447 18.0813784,34.137558 18.3544011,34.9550985 C18.6274238,35.7725242 18.1922483,36.7148248 18.399961,37.2532332 C18.6076737,37.7916415 19.0880725,37.4851929 19.2449511,38.0302582 C19.4018298,38.5753234 19.1630331,39.6529434 19.4063184,40.1842357 C19.6496038,40.715528 20.2464833,40.3931257 20.5357774,40.564714 C20.8250714,40.736417 20.9196699,40.9717052 21.0744165,41.1974671 C21.2290508,41.4231143 21.0139318,41.9565873 21.3285868,42.1297823 C21.6431296,42.3030922 22.1338523,42.1562953 22.4611878,42.3226039 C22.7885233,42.4889125 22.8382352,42.8886729 22.7597958,43.2468849 C22.6812443,43.6050969 22.3314655,43.7694543 22.1778412,44.1336345 C22.024329,44.4979296 22.0414981,44.751467 22.225982,45.0859206 C22.4104659,45.4204889 22.8189339,45.6047024 23.2260553,45.773536 C23.6331767,45.9423697 24.2052564,45.8475657 24.6253949,46.0810176 C25.0455334,46.3144694 25.4231419,46.7796514 25.6449938,47.1177778 C25.8668458,47.4557894 25.9284527,47.6942913 25.9171188,48.0497487 C25.9056727,48.4050913 25.7647288,48.8144928 25.579235,49.157784 C25.3937411,49.5010753 24.9844876,49.9188553 25.6234483,50.5744487 C26.2624089,51.2299272 26.2388435,50.9473518 26.6048936,51.3725922 C26.5650568,50.6370009 26.2679075,50.037762 26.4851586,49.4839738 C26.702522,48.9301857 27.3550608,48.8338897 27.6990043,48.5848285 C28.0429479,48.3356526 28.24101,47.9933943 28.512125,47.6977346 C28.5081974,48.0782128 28.5480343,48.48727 28.5057286,48.7737477 C28.4195464,49.3562296 28.2514461,49.8732898 29.1001394,49.9667164 C29.4824609,50.008724 29.8454812,49.7551866 30.2477773,49.6029952 C30.0370348,49.9889827 29.6705357,50.2993336 29.6154375,50.7613019 C29.5603392,51.2230407 29.6265469,51.7303451 29.939182,52.1886406 C30.2519293,52.6467066 30.7919151,52.9868989 31.1875904,53.2561605 C31.5831535,53.5255368 31.7951304,53.5471144 32.0991249,53.6927636 C32.1140497,54.1468125 32.026633,54.6273743 32.0772427,55.055025 C32.1278523,55.4826757 32.2595944,55.8612028 32.5013088,56.214709 C32.7432475,56.5683299 33.1311799,56.7711369 33.4965567,57.0325938 C33.2962503,56.5554752 32.8899144,56.1028036 32.895413,55.601238 C32.9009116,55.0997871 33.0479152,54.7443298 33.5261819,54.2993481 C34.0044485,53.8542516 35.1241446,53.4682642 35.6521232,53.0355634 C36.1801017,52.6027479 36.3504463,52.3376182 36.53998,51.9174279 C36.7295136,51.4972376 36.6767719,50.8202961 36.7117834,50.4425725 C36.8856068,50.971684 36.9104066,51.1361562 36.9668515,51.6897148 C37.023633,52.2433882 36.651411,53.0199541 36.493859,53.4298146 C37.1469589,53.1071829 37.5614866,52.5914999 37.7707704,52.0875241 C37.9108165,52.1724574 37.8402324,52.4053353 37.8917397,52.8541046 C38.1244767,52.6172095 38.3890832,52.4349472 38.6233912,52.211366 C38.8579237,51.9880144 39.1147872,51.79152 39.2311557,51.479677 C39.3472997,51.1678341 39.29972,50.8362498 39.2132011,50.473906 C39.1266821,50.1115621 38.7307824,49.6913718 38.5175711,49.2950546 C38.3045842,48.8988522 38.5552758,48.5098806 38.5407999,48.0324177 C38.114265,47.9574698 37.7520302,47.7352659 37.2617564,47.8074592 C36.7712582,47.8795377 36.2095024,48.4425078 35.7082314,48.44905 C35.2069604,48.4555922 34.9255214,47.9752599 34.5145847,47.8432689 C34.1036479,47.711278 33.6878858,47.7257396 33.2747048,47.6669749 C33.7980824,47.1541614 35.8294252,46.9099207 37.2188897,46.6781905 C38.4414883,46.4742358 39.6547729,46.3563622 40.8935307,46.3385721 C41.4467579,46.3305378 42.1577616,46.5173911 42.5418786,46.4044528 C42.9263323,46.291744 42.844302,46.0239745 42.958314,45.7321023 C43.2772332,44.9162835 43.1200179,44.1897594 42.9465312,43.3682018 C41.8344659,43.2348335 40.6757185,43.0716239 39.5552369,43.1596561 C38.4597796,43.2457371 37.162557,43.7784067 36.0326493,43.814446 C35.0503062,43.8456647 33.5956439,43.6219687 32.7521126,43.0960709 C31.721292,42.4534471 30.9237694,41.0732808 30.6406472,40.6301356 C30.1795497,39.9083172 29.5979317,38.4922265 29.2440009,37.8447822 C28.8902945,37.1973379 28.8123041,37.0162233 28.5179602,36.7459288 C28.2236164,36.4757491 27.8204226,36.4548601 27.471766,36.3092109 C27.8737254,36.3512185 28.3126041,36.2210639 28.6777565,36.4352336 C29.2263829,36.7571767 29.8404315,38.0915479 30.181794,38.6721933 C30.5434678,37.432167 30.459081,36.9446039 31.5056119,36.2453962 C30.6621928,37.2122586 30.6412083,37.9446362 30.4356277,39.0829721 C31.1369807,40.2603314 32.1120298,42.1357506 33.3879312,42.6561393 C33.8488043,42.8442551 34.6402671,42.9622435 35.1385083,43.0252549 C36.6891157,43.2216344 38.184737,42.7190359 39.7076269,42.3344257 C40.8208144,42.0532276 41.9503855,42.1665103 43.3042774,42.2478855 C43.7639161,42.2754315 44.8477029,41.9926265 45.0721359,41.5171148 C45.1933297,41.2605932 45.1843523,40.9523083 45.0103046,40.6789148 C44.8360324,40.4055214 44.371905,40.2733009 44.1231211,40.0272239 C43.8743371,39.7811468 43.7312611,39.4890451 43.5353311,39.2198983 C42.5012562,39.4228201 41.6506553,39.5007521 40.8830945,39.5221002 C41.4336286,39.2901405 41.9618316,39.1578052 42.534809,38.9286 C43.1077863,38.6993949 43.7584175,38.3231633 44.2208616,38.010976 C44.6833057,37.6986739 44.9785473,37.5175594 45.3131769,37.1541826 C45.647582,36.7905762 46.0765856,36.4160662 46.3231252,35.9716584 C46.5698893,35.5272506 46.6080429,35.0301612 46.6218455,34.4801607 C46.6356481,33.9302749 46.6124193,33.1586443 46.4050433,32.7156138 C46.1978916,32.2726981 45.7984009,32.1382968 45.4774618,32.0335075 C45.1564104,31.9287182 44.9365783,32.193733 44.6027343,32.2295428 C44.2686658,32.2653525 43.9565918,32.4806699 43.4736121,32.2483658 C42.9906323,32.0160617 42.4181038,31.5431898 41.9297377,30.8413423 C41.441596,30.13938 41.0924905,28.9920917 40.5948104,28.1094739 C39.7369154,26.5880199 38.6678289,25.1667643 37.6454246,23.7569862 C37.5612622,23.4093335 37.4347942,22.9288864 37.392713,22.457277 C37.3193235,21.6354899 37.3055208,20.7817954 37.5548659,19.9806677 C37.7459705,19.3669671 38.0239308,18.7187194 38.6522309,18.4670184 C38.9035958,18.3662462 39.2216173,18.3263046 39.4462747,18.4114674 C39.6711565,18.4965155 39.8916619,18.7560212 39.8033475,19.0558128 C39.7062803,19.3854459 39.4829695,19.3943983 39.3312528,19.5608217 C39.073716,19.8431675 38.9707012,20.0503359 38.8734095,20.4023501 C39.1517064,20.3977591 39.5278561,20.3760667 39.756441,20.4375859 C40.0547125,20.5179282 40.3324483,20.7201613 40.4838283,21.152403 C40.1278776,20.8295417 39.9510244,20.6813675 39.5067594,20.66989 C39.3031987,20.6647251 39.0558735,20.7392139 38.8306551,20.7738759 C38.7464927,21.0539263 38.6970052,21.3973323 38.578168,21.614027 C38.4593307,21.8307217 38.2279403,21.7787288 38.1410848,22.0319218 C38.0542292,22.2846558 38.0491795,22.696238 38.0929439,23.0285109 Z M41.2030237,22.6489508 C41.3393668,22.7039279 41.391323,22.7159793 41.5640242,22.8503805 C41.7367253,22.9847817 41.9749609,23.1189534 42.1117528,23.4400931 C42.2487691,23.7613476 42.2423728,24.2580927 42.2131965,24.4604406 C42.0931249,24.4244013 41.929401,24.4487335 41.8048407,24.3398123 C41.6806171,24.2308911 41.606442,23.9842402 41.4470946,23.8786474 C41.2875227,23.7731694 41.1545462,23.7962391 40.9782541,23.773399 C41.0688128,24.0369218 41.1128017,24.3005594 41.0707205,24.5395204 C40.9793763,25.0611716 40.6795338,25.325383 40.1940853,25.3878205 C39.9821084,25.4150221 39.6454589,25.3436322 39.460975,25.3093146 C39.546484,25.5046612 39.6913555,25.6757903 39.7769767,25.8711369 C40.1874646,25.8104211 40.4916834,25.8190292 40.7124133,25.7134364 C40.9331431,25.6078437 41.1698077,25.3712929 41.4530421,25.2710946 C41.7363887,25.1708962 41.9891002,25.1725031 42.2990421,25.1230351 C42.0548591,25.3382378 41.8946139,25.5535552 41.6507675,25.7687578 C41.8296406,26.3005092 42.0085137,26.8321458 42.1872745,27.3637824 C42.566454,27.6064162 42.9221803,27.7342753 43.399998,28.0338373 C43.8780403,28.3335142 44.4511298,28.8695122 45.0735947,29.1618435 C45.6960595,29.4541748 46.0667106,29.6132525 46.7171173,29.7387013 C47.3674118,29.8641501 47.884842,30.4029028 48.5248126,30.4904759 C49.1647832,30.578049 50.3601132,30.5957243 50.8533046,30.546486 C51.4132649,30.4905907 52.1407644,30.1950457 52.2060744,29.5671131 C51.7365606,29.6855606 51.0194973,29.5792792 50.6573747,28.6756577 C50.4966807,28.2744052 50.5754566,27.5365184 50.3294781,27.0620396 C50.0836118,26.5874461 49.7407904,26.43514 49.3312003,25.8504775 C48.9216101,25.2658149 48.2515655,24.3435999 47.8754158,23.5602623 C47.4994906,22.7770394 47.4109518,21.8898307 47.0929303,21.1879832 C46.7749088,20.4862504 46.2951833,19.919378 45.9234101,19.3784446 C45.1116361,18.1962648 44.4569651,17.3883654 43.1195691,16.7919958 C42.4763442,16.5051737 41.7440194,16.4287338 41.0562446,16.2470454 C40.7763767,16.3752487 40.3925963,16.5168808 40.3244809,16.8516787 C40.2563655,17.1864766 40.3872099,17.6809262 40.6247722,17.9322829 C41.0223552,18.3524732 41.6114917,18.8066368 41.8431066,19.4745111 C41.9919056,19.9030799 42.035109,21.3398301 41.9061722,21.7297199 C41.7724102,22.1345305 41.4614583,22.379345 41.2030237,22.6489508 Z M41.3325216,26.0496116 C41.2082979,26.1592215 41.1135872,26.2718155 40.9137296,26.3628319 C40.7140965,26.4538483 40.4414105,26.4773771 40.1764673,26.5450942 C40.5480161,27.1366432 40.938305,27.73439 41.2942557,28.3563544 C41.6504309,28.9782039 41.9590262,29.6591624 42.2989299,30.3103943 C42.282883,29.9371469 42.3044285,29.5392228 42.2513501,29.1904224 C42.1982717,28.8417367 42.0437496,28.5365507 41.8905741,28.0130631 C41.7376231,27.4895755 41.5493238,26.7773983 41.3325216,26.0496116 Z M31.3357161,13.0428789 C31.283311,13.6247869 31.3795928,14.5344915 31.4974201,15.1042333 C31.6385884,15.7862248 31.7744826,16.1398457 32.3155905,16.5507393 C33.306462,17.3030877 33.9390263,17.1762617 34.7013129,17.6125204 C35.0639966,17.820148 35.5236353,18.168145 35.657734,18.535998 C35.7918327,18.9038511 35.5691952,19.3032671 35.2941526,19.460279 C35.7752247,19.5335053 36.3146493,18.978799 36.089543,18.4092867 C35.9786731,18.1290068 35.450919,18.0041319 35.2891028,17.7213269 C35.1276233,17.4386367 35.12796,17.147568 35.2040428,16.8604016 C35.3415079,16.3427675 36.3428156,15.8724206 36.6966342,15.4632487 C37.2411086,14.8335944 37.4501679,14.3068931 37.141797,13.4960096 C36.7087536,12.3568703 35.035718,11.4428043 34.0344103,10.9957566 C33.5758938,10.7911133 33.3188058,10.7765369 32.9611719,10.666927 C33.6933845,11.1058256 34.4653216,11.4554295 34.8357483,12.436524 C35.1450169,13.2559008 34.8771561,13.5646449 34.8874801,14.2780847 C34.8923054,14.6088655 35.3181669,14.7742559 35.5072517,14.9832607 C35.6718733,15.1649491 35.6585195,15.2998094 35.5270018,15.5505922 C35.5125259,15.3243712 35.4180396,15.1555376 35.248256,15.0326138 C34.9679393,14.8293478 34.6659647,14.8730769 34.5166046,14.4563299 C34.2899273,13.8227733 34.7394665,13.2227309 34.2340435,12.5113571 C33.8559861,11.9791466 33.3531441,11.3834657 32.6747954,11.3678564 C32.3537441,11.360396 32.1123664,11.4099787 31.7694328,11.5137351 L31.3122629,10.9509945 L31.3017145,10.9436489 C30.3717765,10.0756076 29.7355091,9.3602166 28.4309925,8.76361749 C27.1264759,8.16713317 26.4835876,8.07680545 24.9878541,8.11077877 C23.4921206,8.14463732 22.007721,8.27261115 20.2753229,9.80060728 C18.543037,11.3286034 14.0782798,17.1797049 12.995503,17.9202315 C11.9128383,18.6607582 11.6730317,18.9116557 10.3201498,18.9120001 C8.96726787,18.9123444 6.85580252,16.9550907 6.77309897,14.5090115 C6.69028321,12.0628174 6.65706713,11.1933988 8.31955433,8.24655729 C9.98215375,5.29960105 12.9940442,4.39471699 15.2287232,4.08918663 C17.4635145,3.78365627 18.8064091,4.5886863 20.4594701,4.59247387 C22.1124189,4.59637621 23.7460665,4.30450405 24.2278119,2.95991796 C23.992045,3.10350116 23.6761556,3.26533355 22.78785,3.21770203 C21.8995443,3.17007051 20.6678562,2.11816001 19.2823192,1.41332833 C17.8967823,0.708611424 16.3549278,0.626088385 14.3773367,0.587868397 C12.3997457,0.549648408 9.9321052,0.704249984 7.48735689,2.05411571 C5.04260858,3.40398143 3.37383726,4.83625542 1.95586978,7.4781404 C0.537902295,10.1201402 0.326037575,12.2772166 0.554622551,15.4761034 C0.783207528,18.6749902 1.74782042,21.054041 3.60511543,23.395331 C5.46241045,25.7366209 7.3185833,26.8821876 10.6655521,27.3081167 L11.3701594,24.1293154 L10.1123249,25.9755819 L10.1434088,23.922147 L9.00564591,25.366128 L8.50661921,23.4078414 L7.58487301,24.9778451 L7.12702976,22.7913863 L5.79131696,23.8963227 L6.21414867,22.0921786 L4.44673906,22.2922309 L5.25862532,21.0382021 L3.6470844,21.0582877 L4.58476533,19.3840686 L3.1549029,19.1518793 L4.29502237,17.6291628 L2.54444523,17.0983296 L3.99383333,15.6787956 L2.56273652,14.4859417 L3.68209594,13.5955193 L2.63534058,12.1709352 L3.75189459,10.8414994 L3.33512257,9.08590497 L4.28323964,8.240589 L4.5654641,6.23421176 L5.62950079,5.68765445 L6.54496286,4.12143834 L8.23707522,3.93768398 L9.07196585,2.52893881 L10.7714845,2.61743013 L12.3775268,1.72459743 L14.0431561,2.12137371 L15.935126,1.53694073 L17.3363732,1.87277162 L19.165053,2.14765712 L20.9305549,3.59152336 L18.2224345,2.62466094 L16.8601264,3.29276471 L15.734034,2.58976942 L14.9587303,3.12840728 L13.5868838,3.26889156 L12.3566545,3.18763105 L11.4598204,4.30737342 L9.63170167,4.32665557 L8.97961169,5.83513999 L7.35404371,6.41842522 L7.20199037,8.15232723 L6.03628554,9.08636407 L6.42466679,10.7180018 L5.41797272,12.4126508 L6.19024656,13.8949666 L5.43020432,15.251604 L6.44138705,15.9264795 L6.21201656,18.10697 L7.61831353,18.4694287 L7.93510066,20.0869491 L9.46752895,19.9240837 L10.4195736,21.0323486 L11.5962756,19.85717 C13.7414059,18.7631372 14.6247741,18.1511583 16.2965753,16.3017929 C18.1996546,14.1964798 19.2903988,12.250015 21.8253692,10.808559 C23.6435006,9.77466818 25.1264415,9.40256848 27.1687815,9.76353503 C29.0863367,10.1023501 29.7284394,11.2787912 31.1406839,12.5181288 C31.2903807,12.2409478 31.3207913,12.167492 31.5674432,11.9634225 C31.4900138,12.3233561 31.3670245,12.6967183 31.3357161,13.0428789 Z" id="Shape" fill="#000000"></path>
            </g>
        </g>
    </g>
</svg>